{"asset":{"version":"2.0","generator":"babylon.js glTF exporter for 3ds max 2015 v1.4.2"},"scene":0,"scenes":[{"nodes":[0,1,7,8],"extensions":{}}],"nodes":[{"mesh":0,"translation":[0.0,0.0,0.0],"rotation":[0.0,0.0,0.0,1.0],"scale":[1.0,1.0,1.0],"name":"Box001"},{"children":[2,3,4,5,6],"translation":[7.26699838E-08,0.387990743,2.42233273E-08],"rotation":[0.0,0.0,0.0,1.0],"scale":[1.0,1.0,1.0],"name":"Group001"},{"mesh":1,"translation":[-7.26699838E-08,0.05950092,-2.42233273E-08],"rotation":[0.0,0.675590158,0.0,0.7372774],"scale":[1.0,1.0,1.0],"name":"Box003"},{"mesh":2,"translation":[-7.26699838E-08,0.05950092,-2.42233273E-08],"rotation":[0.0,-0.737277448,0.0,0.6755901],"scale":[1.0,1.0,1.0],"name":"Box005"},{"mesh":3,"translation":[-7.26699838E-08,-0.387990743,-2.42233273E-08],"rotation":[0.0,0.0,0.0,1.0],"scale":[1.0,1.0,1.0],"name":"Cylinder001"},{"mesh":4,"translation":[-7.26699838E-08,0.05950092,-2.42233273E-08],"rotation":[0.0,0.0,0.0,1.0],"scale":[1.0,1.0,1.0],"name":"Box002"},{"mesh":5,"translation":[-7.26699838E-08,0.05950092,-2.42233273E-08],"rotation":[0.0,-1.0,0.0,-7.54979E-08],"scale":[1.0,1.0,1.0],"name":"Box004"},{"mesh":6,"translation":[-0.0265759584,0.0,-0.92373246],"rotation":[0.0,0.0,0.0,1.0],"scale":[1.0,1.0,1.0],"name":"Box006"},{"translation":[0.0,0.0,0.0],"rotation":[0.0,0.0,0.0,1.0],"scale":[1.0,1.0,1.0],"name":"Default light"}],"meshes":[{"primitives":[{"attributes":{"POSITION":1,"TANGENT":2,"NORMAL":3,"TEXCOORD_0":4},"indices":0,"mode":4,"material":0}],"name":"Box001"},{"primitives":[{"attributes":{"POSITION":6,"TANGENT":7,"NORMAL":8,"TEXCOORD_0":9},"indices":5,"mode":4,"material":1}],"name":"Box003"},{"primitives":[{"attributes":{"POSITION":11,"TANGENT":12,"NORMAL":13,"TEXCOORD_0":14},"indices":10,"mode":4,"material":1}],"name":"Box005"},{"primitives":[{"attributes":{"POSITION":16,"TANGENT":17,"NORMAL":18,"TEXCOORD_0":19},"indices":15,"mode":4,"material":1}],"name":"Cylinder001"},{"primitives":[{"attributes":{"POSITION":21,"TANGENT":22,"NORMAL":23,"TEXCOORD_0":24},"indices":20,"mode":4,"material":1}],"name":"Box002"},{"primitives":[{"attributes":{"POSITION":26,"TANGENT":27,"NORMAL":28,"TEXCOORD_0":29},"indices":25,"mode":4,"material":1}],"name":"Box004"},{"primitives":[{"attributes":{"POSITION":31,"TANGENT":32,"NORMAL":33,"TEXCOORD_0":34},"indices":30,"mode":4,"material":2}],"name":"Box006"}],"accessors":[{"bufferView":0,"componentType":5123,"count":36,"type":"SCALAR","name":"accessorIndices"},{"bufferView":1,"componentType":5126,"count":36,"max":[0.461394519,0.307596326,0.438091755],"min":[-0.461394519,0.0,-0.438091755],"type":"VEC3","name":"accessorPositions"},{"bufferView":2,"componentType":5126,"count":36,"type":"VEC4","name":"accessorTangents"},{"bufferView":1,"byteOffset":432,"componentType":5126,"count":36,"type":"VEC3","name":"accessorNormals"},{"bufferView":3,"componentType":5126,"count":36,"type":"VEC2","name":"accessorUVs"},{"bufferView":0,"byteOffset":72,"componentType":5123,"count":132,"type":"SCALAR","name":"accessorIndices"},{"bufferView":1,"byteOffset":864,"componentType":5126,"count":132,"max":[-0.009572865,0.307596326,-0.0390211567],"min":[-0.461394459,0.269586742,-0.438091755],"type":"VEC3","name":"accessorPositions"},{"bufferView":2,"byteOffset":576,"componentType":5126,"count":132,"type":"VEC4","name":"accessorTangents"},{"bufferView":1,"byteOffset":2448,"componentType":5126,"count":132,"type":"VEC3","name":"accessorNormals"},{"bufferView":3,"byteOffset":288,"componentType":5126,"count":132,"type":"VEC2","name":"accessorUVs"},{"bufferView":0,"byteOffset":336,"componentType":5123,"count":132,"type":"SCALAR","name":"accessorIndices"},{"bufferView":1,"byteOffset":4032,"componentType":5126,"count":132,"max":[-0.009572865,0.307596326,-0.03902115],"min":[-0.461394519,0.269586742,-0.438091755],"type":"VEC3","name":"accessorPositions"},{"bufferView":2,"byteOffset":2688,"componentType":5126,"count":132,"type":"VEC4","name":"accessorTangents"},{"bufferView":1,"byteOffset":5616,"componentType":5126,"count":132,"type":"VEC3","name":"accessorNormals"},{"bufferView":3,"byteOffset":1344,"componentType":5126,"count":132,"type":"VEC2","name":"accessorUVs"},{"bufferView":0,"byteOffset":600,"componentType":5123,"count":204,"type":"SCALAR","name":"accessorIndices"},{"bufferView":1,"byteOffset":7200,"componentType":5126,"count":204,"max":[0.0598894171,0.7759815,0.05897957],"min":[-0.0598894171,0.0,-0.0589795634],"type":"VEC3","name":"accessorPositions"},{"bufferView":2,"byteOffset":4800,"componentType":5126,"count":204,"type":"VEC4","name":"accessorTangents"},{"bufferView":1,"byteOffset":9648,"componentType":5126,"count":204,"type":"VEC3","name":"accessorNormals"},{"bufferView":3,"byteOffset":2400,"componentType":5126,"count":204,"type":"VEC2","name":"accessorUVs"},{"bufferView":0,"byteOffset":1008,"componentType":5123,"count":132,"type":"SCALAR","name":"accessorIndices"},{"bufferView":1,"byteOffset":12096,"componentType":5126,"count":132,"max":[-0.009572865,0.307596326,-0.039021153],"min":[-0.461394519,0.269586742,-0.438091755],"type":"VEC3","name":"accessorPositions"},{"bufferView":2,"byteOffset":8064,"componentType":5126,"count":132,"type":"VEC4","name":"accessorTangents"},{"bufferView":1,"byteOffset":13680,"componentType":5126,"count":132,"type":"VEC3","name":"accessorNormals"},{"bufferView":3,"byteOffset":4032,"componentType":5126,"count":132,"type":"VEC2","name":"accessorUVs"},{"bufferView":0,"byteOffset":1272,"componentType":5123,"count":132,"type":"SCALAR","name":"accessorIndices"},{"bufferView":1,"byteOffset":15264,"componentType":5126,"count":132,"max":[-0.009572865,0.307596326,-0.039021153],"min":[-0.461394519,0.269586742,-0.438091755],"type":"VEC3","name":"accessorPositions"},{"bufferView":2,"byteOffset":10176,"componentType":5126,"count":132,"type":"VEC4","name":"accessorTangents"},{"bufferView":1,"byteOffset":16848,"componentType":5126,"count":132,"type":"VEC3","name":"accessorNormals"},{"bufferView":3,"byteOffset":5088,"componentType":5126,"count":132,"type":"VEC2","name":"accessorUVs"},{"bufferView":0,"byteOffset":1536,"componentType":5123,"count":36,"type":"SCALAR","name":"accessorIndices"},{"bufferView":1,"byteOffset":18432,"componentType":5126,"count":36,"max":[0.329276025,0.329276025,0.2993418],"min":[-0.329276025,0.0,-0.2993418],"type":"VEC3","name":"accessorPositions"},{"bufferView":2,"byteOffset":12288,"componentType":5126,"count":36,"type":"VEC4","name":"accessorTangents"},{"bufferView":1,"byteOffset":18864,"componentType":5126,"count":36,"type":"VEC3","name":"accessorNormals"},{"bufferView":3,"byteOffset":6144,"componentType":5126,"count":36,"type":"VEC2","name":"accessorUVs"},{"bufferView":4,"componentType":5126,"count":41,"max":[1.33333337],"min":[0.0],"type":"SCALAR","name":"accessorAnimationInput"},{"bufferView":5,"componentType":5126,"count":41,"type":"VEC4","name":"accessorAnimationRotations"}],"bufferViews":[{"buffer":0,"byteLength":1608,"name":"bufferViewScalar"},{"buffer":0,"byteOffset":1608,"byteLength":19296,"byteStride":12,"name":"bufferViewFloatVec3"},{"buffer":0,"byteOffset":20904,"byteLength":12864,"byteStride":16,"name":"bufferViewFloatVec4"},{"buffer":0,"byteOffset":33768,"byteLength":6432,"byteStride":8,"name":"bufferViewFloatVec2"},{"buffer":0,"byteOffset":40200,"byteLength":164,"name":"bufferViewAnimationFloatScalar"},{"buffer":0,"byteOffset":40364,"byteLength":656,"name":"bufferViewAnimationFloatVec4"}],"buffers":[{"uri":"C2.bin","byteLength":41020}],"materials":[{"pbrMetallicRoughness":{"baseColorFactor":[0.5,0.5,0.5,1.0],"baseColorTexture":{"index":0,"texCoord":0},"metallicFactor":0.0,"roughnessFactor":0.450053632},"emissiveFactor":[0.0,0.0,0.0],"alphaMode":"BLEND","name":"Material #5"},{"pbrMetallicRoughness":{"baseColorFactor":[0.0235294141,0.5,0.0,1.0],"metallicFactor":0.0,"roughnessFactor":0.450053632},"emissiveFactor":[0.0,0.0,0.0],"alphaMode":"OPAQUE","name":"02 - Default"},{"pbrMetallicRoughness":{"baseColorFactor":[0.5,0.5,0.5,1.0],"baseColorTexture":{"index":1,"texCoord":0},"metallicFactor":0.0,"roughnessFactor":0.450053632},"emissiveFactor":[0.0,0.0,0.0],"alphaMode":"BLEND","name":"Material #4"}],"textures":[{"sampler":0,"source":0,"name":"jinshu.png"},{"sampler":0,"source":1,"name":"C12.jpg"}],"images":[{"uri":"jinshu.png"},{"uri":"C12.jpg"}],"samplers":[{"magFilter":9729,"minFilter":9987,"wrapS":10497,"wrapT":10497}],"animations":[{"channels":[{"sampler":0,"target":{"node":1,"path":"rotation"}}],"samplers":[{"input":35,"interpolation":"LINEAR","output":36}],"name":"Animation"}]}